<?xml version="1.0" standalone="no"?>
<!DOCTYPE svg PUBLIC "-//W3C//DTD SVG 20010904//EN"
 "http://www.w3.org/TR/2001/REC-SVG-20010904/DTD/svg10.dtd">
<svg version="1.0" xmlns="http://www.w3.org/2000/svg"
 width="800.000000pt" height="800.000000pt" viewBox="0 0 800.000000 800.000000"
 preserveAspectRatio="xMidYMid meet">
<metadata>
Created by potrace 1.14, written by Peter Selinger 2001-2017
</metadata>
<g transform="translate(0.000000,800.000000) scale(0.100000,-0.100000)"
fill="#000000" stroke="none">
<path d="M3710 7180 l-835 -5 -38 -24 c-68 -42 -96 -135 -61 -204 9 -18 44
-61 77 -96 108 -117 157 -210 186 -360 17 -87 20 -168 26 -898 l7 -802 -174
-258 c-96 -142 -286 -424 -423 -628 -137 -203 -285 -424 -330 -490 -196 -288
-734 -1094 -757 -1135 -46 -80 -109 -238 -133 -334 -68 -270 -49 -525 56 -726
101 -194 271 -329 495 -393 l79 -22 2025 -3 c1454 -2 2053 0 2125 8 315 36
551 191 675 444 59 118 73 199 67 381 -6 178 -24 256 -98 421 -55 122 -60 130
-294 482 -186 280 -283 429 -690 1057 -164 253 -339 523 -390 600 -50 77 -158
242 -239 367 l-147 227 -5 108 c-13 322 -35 1459 -29 1527 15 173 66 296 178
427 90 105 97 117 97 174 0 57 -24 102 -73 139 -34 25 -47 25 -1377 16z"/>
</g>
</svg>
